inDegrees=no
num_controls=7
num_derivatives=13
num_iterations=42
num_multipliers=7
num_parameters=0
num_slacks=7
num_states=26
objective=0.471851
objective_accelerations=0.057255
objective_balance=0.000571
objective_effort=0.015521
objective_height=0.389519
objective_ligament=0.008985
solver_duration=577.888770
status=Solve_Succeeded
success=true
DataType=double
version=3
OpenSimVersion=4.5
endheader
time	/jointset/ground_pelvis/pelvis_tilt/value	/jointset/ground_pelvis/pelvis_tx/value	/jointset/ground_pelvis/pelvis_ty/value	/jointset/hip_l/hip_flexion_l/value	/jointset/hip_l/hip_adduction_l/value	/jointset/hip_l/hip_rotation_l/value	/jointset/back/lumbar_extension/value	/jointset/patellofemoral_l/patellar_flexion_l/value	/jointset/knee_l/knee_flexion_l/value	/jointset/knee_l/knee_adduction_l/value	/jointset/knee_l/knee_rotation_l/value	/jointset/ankle_l/ankle_angle_l/value	/jointset/subtalar_l/subtalar_angle_l/value	/jointset/ground_pelvis/pelvis_tilt/speed	/jointset/ground_pelvis/pelvis_tx/speed	/jointset/ground_pelvis/pelvis_ty/speed	/jointset/hip_l/hip_flexion_l/speed	/jointset/hip_l/hip_adduction_l/speed	/jointset/hip_l/hip_rotation_l/speed	/jointset/back/lumbar_extension/speed	/jointset/patellofemoral_l/patellar_flexion_l/speed	/jointset/knee_l/knee_flexion_l/speed	/jointset/knee_l/knee_adduction_l/speed	/jointset/knee_l/knee_rotation_l/speed	/jointset/ankle_l/ankle_angle_l/speed	/jointset/subtalar_l/subtalar_angle_l/speed	/forceset/tau_hip_flexion_l	/forceset/tau_hip_adduction_l	/forceset/tau_hip_rotation_l	/forceset/tau_knee_flexion_l	/forceset/tau_ankle_angle_l	/forceset/tau_subtalar_angle_l	/forceset/tau_lumbar_extension	lambda_cid13_p0	lambda_cid13_p1	lambda_cid13_p2	lambda_cid13_p3	lambda_cid13_p4	lambda_cid13_p5	lambda_cid14_p0	/jointset/ground_pelvis/pelvis_tilt/accel	/jointset/ground_pelvis/pelvis_tx/accel	/jointset/ground_pelvis/pelvis_ty/accel	/jointset/hip_l/hip_flexion_l/accel	/jointset/hip_l/hip_adduction_l/accel	/jointset/hip_l/hip_rotation_l/accel	/jointset/back/lumbar_extension/accel	/jointset/patellofemoral_l/patellar_flexion_l/accel	/jointset/knee_l/knee_flexion_l/accel	/jointset/knee_l/knee_adduction_l/accel	/jointset/knee_l/knee_rotation_l/accel	/jointset/ankle_l/ankle_angle_l/accel	/jointset/subtalar_l/subtalar_angle_l/accel	gamma_cid13_p0	gamma_cid13_p1	gamma_cid13_p2	gamma_cid13_p3	gamma_cid13_p4	gamma_cid13_p5	gamma_cid14_p0
1	-0.3985570914179294	0.01310432940833007	0.638170576421958	1.526740016991496	-0.3541805477069467	0.1044894476227047	-0.4362416500516507	1.397790229788326	1.397790229788321	0.0410902177259474	-0.1744213726284463	0.4351892364806334	0.2375116131800554	-0.1407833351017697	0.004624192625359604	0.03009910857170251	0.03026841430275638	0.002233563019136236	-0.05670203797922124	-0.001590660070341655	-0.1488691253598639	-0.1488691253598673	0.0008147857731223525	0.000216442319443893	-0.05049110659105966	-0.02582600787528442	-0.2121821102955552	0.08730489591028104	-0.009275674099858066	-0.2764643451236489	-0.02878890775365005	-0.01033862605961286	0.1924985363363542	-43.46361582765142	21.17751502437173	-14.02572865190105	5.190593027524191	-531.5803283826274	-32.63675141342762	-0.0246246215581808	1.439023779926117	0.2265684853918273	1.739909253999064	-5.9290309229954	-0.1047809290473294	-1.560760005809142	-0.04320739797528392	-5.186005019835305	-5.186005019835338	-0.5805703216761819	-0.02164805841821386	-1.131709192790007	-0.8241321849414809	-5.90744306089781e-09	-8.960270504537516e-08	-8.096793146996351e-09	3.238141922599291e-09	-8.524693725093432e-09	-8.607951011397208e-08	-1.987398335510923e-09
1.01	-0.3998934581691001	0.01316196310960369	0.6385584212071301	1.526746898625826	-0.3541629992135404	0.1038455638824524	-0.4362587009193282	1.396042500709746	1.396042500709695	0.04106894172458903	-0.1744190603573176	0.434627850671238	0.2372129843022653	-0.126458461993491	0.006914130404415445	0.04746912872667337	-0.02893213609710991	0.001275939942869507	-0.07206460867871088	-0.001810064424421399	-0.2006848517763503	-0.2006848517763541	-0.005080527202599166	0.0002429434057191073	-0.06178463271599944	-0.03389312425201387	-0.2128604747511526	0.08730880935400505	-0.009319887716043645	-0.2754051698253145	-0.02934387334778574	-0.01027312681065498	0.1929426908065602	-43.60766186179528	21.11291689648606	-13.94532700457872	5.103899355282622	-531.5951467497916	-32.58345918830386	-0.02464236325945599	1.433952701437218	0.231943605306139	1.735437987386805	-5.921573965094351	-0.09127726845106644	-1.522499897828098	-0.009889596170414894	-5.18058001991715	-5.18058001991727	-0.5956058604191092	0.01432950310576541	-1.127967475698372	-0.7969845916984892	-6.452386512586125e-09	-1.176378973286059e-07	-1.265770292992355e-08	-1.132099234091271e-09	-1.220518082951788e-08	-1.080351838208943e-07	-3.215915940274424e-09
1.02	-0.4010856294641637	0.01324284362489615	0.6391199441120796	1.526160573382758	-0.3541550318052131	0.1030483555760521	-0.4362776623588894	1.393776369653529	1.393776369653489	0.04098839377845427	-0.1744165770131481	0.4339535709699164	0.2368338876151762	-0.11194424387888	0.009273555429125682	0.06483473252732309	-0.08837296116147457	0.0003173460052047753	-0.08736695121056849	-0.00197277446030829	-0.2525495208873096	-0.2525495208873133	-0.01103960317427823	0.000250656930202793	-0.07306988497503229	-0.04191956973513775	-0.2135388392072912	0.08731272279770533	-0.009364101332466917	-0.2743459945269805	-0.02989883894183551	-0.01020762756167963	0.1933868452762148	-43.75559291354289	21.04577602919359	-13.86083847728213	5.015184596833209	-531.7342893560415	-32.5384853904383	-0.02466307587764248	1.476892781192503	0.2404659345227533	1.739025983134839	-5.977085855895075	-0.1049751013269615	-1.548714372282766	-0.03186853433572211	-5.195793558729869	-5.195793558729821	-0.5933229208677019	-0.02540557077656558	-1.130054419608542	-0.8159980062203699	-6.865357653490934e-09	-1.474948574166445e-07	-1.995920693901956e-08	-6.007987820569499e-09	-1.525650928723203e-08	-1.319181456467295e-07	-4.23964216911874e-09
1.03	-0.4021320699528067	0.01334771961684687	0.6398549718211322	1.524979167718507	-0.3541566222817494	0.1020984851655135	-0.436297161393122	1.390991519646604	1.39099151964654	0.04084799760669965	-0.174414074309476	0.4331665059630253	0.2363748228463966	-0.09734716263528731	0.01171874599846038	0.08215730904643793	-0.147896733988598	-0.0006335172191153476	-0.102595412874224	-0.001837772547355601	-0.3044118638884223	-0.3044118638884253	-0.01704186393658681	0.0002467174682012183	-0.08433907123178207	-0.04987920423478771	-0.2141893737272918	0.08732645239722002	-0.009402114689265897	-0.2729601164619537	-0.03049730114620554	-0.01012619300267424	0.1938748568424576	-43.89435214035329	20.95560717996344	-13.75611470171443	4.877077479851756	-531.6331746194553	-32.46685768079371	-0.02468912765460926	1.45061977777678	0.2491088664883746	1.726844772068837	-5.938307291777088	-0.08984388737172266	-1.50816854379535	0.04957353156217964	-5.180161120979661	-5.180161120979709	-0.6040324010116171	0.01162131304582074	-1.124753440698709	-0.7837876332156054	-7.276982138163257e-09	-1.773704069720791e-07	-2.728867619532139e-08	-1.088903607469863e-08	-1.830141775875525e-08	-1.558207736778597e-07	-5.261278690045513e-09
1.04	-0.4030326388326499	0.01347756016416037	0.6407628195525292	1.523202867466783	-0.3541676617814143	0.100996678842261	-0.4363126326125223	1.387688304919633	1.387688304919595	0.04064750787787314	-0.1744117091110378	0.4322668685511692	0.2358365934403448	-0.08276992211833842	0.01426646650168316	0.0993987369963327	-0.207351878641986	-0.001572458618925243	-0.1177541337534163	-0.001167211536317282	-0.3562224648966437	-0.3562224648966464	-0.02305831458286323	0.0002231558845041328	-0.09558436596815066	-0.05775249718957228	-0.2148399082478055	0.0873401819966806	-0.009440128046266361	-0.2715742383969322	-0.0310957633505035	-0.01004475844371032	0.1943628684081777	-44.03719817789669	20.86301483673294	-13.64741891084277	4.736360404000542	-531.6578061414776	-32.4041640794665	-0.02471759803756665	1.472924635863692	0.2609719213004133	1.72279626929083	-5.963360221147948	-0.1025907364249507	-1.534766215390156	0.07524328528310052	-5.185445160151622	-5.185445160151633	-0.5961608976612806	-0.02932999511572041	-1.125276115532235	-0.798729697247301	-7.276469360112601e-09	-2.074526006818828e-07	-3.354316233043853e-08	-1.666271305454154e-08	-2.101187135403274e-08	-1.792691083769198e-07	-6.501720383318322e-09
1.05	-0.403787799956954	0.01363341659098026	0.641842538973086	1.520832862399467	-0.3541880020124721	0.09974379858966065	-0.4363181402571553	1.383867453606798	1.383867453606791	0.04038674556115701	-0.17440963672052	0.4312548919857699	0.2352201256531064	-0.06829348644320328	0.01692460159366963	0.1165178500516004	-0.2665863349982169	-0.002491512817893077	-0.1327976978842728	0.0002149807628074712	-0.4079183611498053	-0.4079183611498091	-0.02909787304287324	0.0001895410531561628	-0.1068074283349772	-0.0655216392524413	-0.2154056727875602	0.08736743039478395	-0.009472390475675444	-0.2698172271312419	-0.03179152253844941	-0.009943266614991191	0.1948279713034136	-44.18512666826887	20.7454251710717	-13.51511841709091	4.589015133146146	-531.3683683736494	-32.30990897238692	-0.0247515157436127	1.430325353449768	0.2711971614920151	1.702369494500184	-5.894068744261845	-0.08593808392858091	-1.485537755257601	0.1921019435562945	-5.157244817416673	-5.157244817416914	-0.6084389318502328	0.00933430047715314	-1.120305784443822	-0.7630506501055713	-7.263077292601855e-09	-2.375412520215104e-07	-3.976405524301866e-08	-2.246428468206302e-08	-2.371187323442756e-08	-2.027032464093527e-07	-7.748999738226943e-09
1.06	-0.404399132260481	0.01381644694038847	0.6430926296583659	1.517872396688293	-0.3542174078499795	0.09834120544707842	-0.4363053470315333	1.379530526739527	1.379530526739563	0.04006547053749071	-0.1744079581727865	0.4301307878992693	0.2345265576073792	-0.05400415796361694	0.01970125101934671	0.1334729899410905	-0.3254440074105112	-0.003385579908692631	-0.1476967117481	0.002492962715100568	-0.4594375757837003	-0.4594375757837049	-0.03516085597006062	0.0001443873266622574	-0.118009870189243	-0.07317254888726853	-0.2159714373274383	0.08739467879283912	-0.009504652905182792	-0.2680602158655579	-0.03248728172638425	-0.009841774786342119	0.1952930741985283	-44.33738660475988	20.62557852186686	-13.37901372110087	4.438356082746242	-531.2058230652926	-32.22540841243217	-0.02478722003848502	1.435503196753896	0.2846747880385712	1.690001636135321	-5.88800343236061	-0.09759331479132968	-1.50585616198434	0.2544012159179501	-5.150108836298303	-5.150108836298278	-0.6008457910967667	-0.03163777414496346	-1.121152013020057	-0.7750832116389594	-7.398873211135332e-09	-2.680933543464654e-07	-4.962190417250275e-08	-2.766063989184501e-08	-2.675247812942794e-08	-2.277344310554581e-07	-8.376157644273705e-09
